<?xml version="1.0" encoding="utf-8"?>
<!-- Generator: Adobe Illustrator 20.1.0, SVG Export Plug-In . SVG Version: 6.00 Build 0)  -->
<svg version="1.1" id="Layer_1" xmlns="http://www.w3.org/2000/svg" xmlns:xlink="http://www.w3.org/1999/xlink" x="0px" y="0px"
	 viewBox="0 0 635 238.1" style="enable-background:new 0 0 635 238.1;" xml:space="preserve">
<style type="text/css">
	.st0{fill:#282828;stroke:#010202;stroke-width:1.5;stroke-linejoin:round;stroke-miterlimit:10;}
	.st1{fill:#7F7F80;stroke:#010202;stroke-width:1.5;stroke-miterlimit:10;}
	.st2{fill:none;stroke:#010202;stroke-width:0.75;stroke-miterlimit:10;}
	.st3{fill:#7F7F80;stroke:#010202;stroke-width:2;stroke-miterlimit:10;}
	.st4{fill:none;stroke:#9E1A1A;stroke-width:2.25;stroke-linecap:round;stroke-miterlimit:10;}
	.st5{fill:none;stroke:#000000;stroke-width:4;stroke-linecap:round;stroke-miterlimit:10;}
	.st6{fill:#282828;stroke:#010202;stroke-width:2;stroke-miterlimit:10;}
	.st7{fill:#7F7F80;stroke:#000000;stroke-width:2.5;stroke-miterlimit:10;}
	.st8{fill:#9E1A1A;stroke:#010202;stroke-width:2;stroke-miterlimit:10;}
	.st9{fill:#9E1A1A;stroke:#010202;stroke-width:2;stroke-linejoin:round;stroke-miterlimit:10;}
</style>
<rect x="35.5" y="138.4" class="st0" width="20.3" height="6.9"/>
<path class="st1" d="M46.8,140.9c2.4,2.1,23.7,20.7,27,23.7c1.9,1.7,1.8,5.2-0.1,6.9c-1.9,1.7-5.3,1.4-6.9-0.6
	c-1.8-2.3-19-24.1-22.2-28.1c-0.5-0.7-0.4-1.5,0.2-2C45.3,140.3,46.2,140.3,46.8,140.9z"/>
<g>
	<line class="st2" x1="58.3" y1="225.8" x2="78.2" y2="170.1"/>
	<line class="st2" x1="52.1" y1="216.1" x2="62" y2="164.8"/>
	<line class="st2" x1="76.4" y1="221.5" x2="78.7" y2="167.5"/>
	<line class="st2" x1="67.5" y1="219.5" x2="61.8" y2="168.1"/>
	<line class="st2" x1="94.8" y1="221.7" x2="78.2" y2="164.9"/>
	<line class="st2" x1="84.2" y1="217.5" x2="62" y2="170.2"/>
	<line class="st2" x1="107" y1="207.6" x2="77.1" y2="162.6"/>
	<line class="st2" x1="98.6" y1="211.2" x2="63.8" y2="173"/>
	<line class="st2" x1="122" y1="196.9" x2="75.2" y2="160.8"/>
	<line class="st2" x1="110.9" y1="199.8" x2="65.2" y2="174.5"/>
	<line class="st2" x1="123.5" y1="178.4" x2="72.9" y2="159.5"/>
	<line class="st2" x1="118.8" y1="186.2" x2="68.3" y2="175.8"/>
	<line class="st2" x1="129.4" y1="160.9" x2="70.3" y2="159.2"/>
	<line class="st2" x1="122.1" y1="169.7" x2="70.3" y2="176.2"/>
	<line class="st2" x1="119.8" y1="145" x2="67.7" y2="159.5"/>
	<line class="st2" x1="120.6" y1="154.1" x2="73.5" y2="175.4"/>
	<line class="st2" x1="114.3" y1="127.4" x2="65.4" y2="160.8"/>
	<line class="st2" x1="113.5" y1="138.8" x2="75.4" y2="174.5"/>
	<line class="st2" x1="97.1" y1="120.2" x2="63.5" y2="162.5"/>
	<line class="st2" x1="103.1" y1="127.1" x2="77.5" y2="172"/>
	<line class="st2" x1="82.3" y1="109.2" x2="62.4" y2="164.9"/>
	<line class="st2" x1="88.4" y1="118.9" x2="78.5" y2="170.2"/>
	<line class="st2" x1="64.2" y1="113.5" x2="61.8" y2="167.5"/>
	<line class="st2" x1="73.1" y1="115.5" x2="78.8" y2="166.9"/>
	<line class="st2" x1="45.7" y1="113.3" x2="62.4" y2="170.1"/>
	<line class="st2" x1="56.4" y1="117.5" x2="78.5" y2="164.8"/>
	<line class="st2" x1="33.6" y1="127.4" x2="63.4" y2="172.4"/>
	<line class="st2" x1="42" y1="123.8" x2="76.8" y2="162"/>
	<line class="st2" x1="18.6" y1="138.1" x2="65.4" y2="174.2"/>
	<line class="st2" x1="29.6" y1="135.2" x2="75.4" y2="160.5"/>
	<line class="st2" x1="17" y1="156.6" x2="67.7" y2="175.5"/>
	<line class="st2" x1="21.7" y1="148.8" x2="72.3" y2="159.2"/>
	<line class="st2" x1="11.1" y1="174.1" x2="70.3" y2="175.8"/>
	<line class="st2" x1="18.4" y1="165.3" x2="70.3" y2="158.8"/>
	<line class="st2" x1="20.8" y1="190" x2="72.9" y2="175.5"/>
	<line class="st2" x1="20" y1="180.9" x2="67" y2="159.6"/>
	<line class="st2" x1="26.3" y1="207.6" x2="75.1" y2="174.2"/>
	<line class="st2" x1="27" y1="196.2" x2="65.2" y2="160.5"/>
	<line class="st2" x1="43.5" y1="214.8" x2="77.1" y2="172.5"/>
	<line class="st2" x1="37.4" y1="207.9" x2="63" y2="163"/>
</g>
<rect x="103.6" y="30.2" transform="matrix(0.9511 0.309 -0.309 0.9511 22.0417 -30.4204)" class="st3" width="6.9" height="48.4"/>
<g>
	<g>
		<line class="st4" x1="69.5" y1="106.8" x2="69.6" y2="115.6"/>
		<line class="st4" x1="66.3" y1="110.5" x2="66.5" y2="114.6"/>
		<line class="st4" x1="73.2" y1="103.7" x2="72.7" y2="115.1"/>
		<line class="st4" x1="77" y1="103.5" x2="75.9" y2="113.4"/>
		<line class="st4" x1="80.3" y1="106.1" x2="79.5" y2="110.8"/>
		<path class="st4" d="M72.9,109.4"/>
	</g>
	<g>
		<line class="st4" x1="33.8" y1="118.8" x2="39.1" y2="125.9"/>
		<line class="st4" x1="33.4" y1="123.8" x2="36.1" y2="126.9"/>
		<line class="st4" x1="35.1" y1="114.2" x2="41.3" y2="123.7"/>
		<line class="st4" x1="37.9" y1="111.8" x2="42.9" y2="120.4"/>
		<line class="st4" x1="42.2" y1="111.9" x2="44.3" y2="116.2"/>
		<path class="st4" d="M38.2,119"/>
	</g>
	<g>
		<line class="st4" x1="12.2" y1="149.4" x2="20.6" y2="152.1"/>
		<line class="st4" x1="14.7" y1="153.6" x2="18.7" y2="154.6"/>
		<line class="st4" x1="10.4" y1="144.9" x2="21.1" y2="149"/>
		<line class="st4" x1="11.3" y1="141.3" x2="20.4" y2="145.3"/>
		<line class="st4" x1="14.8" y1="138.9" x2="19.1" y2="141.1"/>
		<path class="st4" d="M15.8,147"/>
	</g>
	<g>
		<line class="st4" x1="12.7" y1="187" x2="21" y2="184.2"/>
		<line class="st4" x1="17.2" y1="188.9" x2="21" y2="187.4"/>
		<line class="st4" x1="8.6" y1="184.4" x2="19.6" y2="181.4"/>
		<line class="st4" x1="7.2" y1="180.9" x2="16.9" y2="178.9"/>
		<line class="st4" x1="8.6" y1="177" x2="13.4" y2="176.3"/>
		<path class="st4" d="M14.1,182.9"/>
	</g>
	<g>
		<line class="st4" x1="35.1" y1="217.2" x2="40.2" y2="210"/>
		<line class="st4" x1="39.9" y1="216" x2="42.1" y2="212.5"/>
		<line class="st4" x1="30.3" y1="217.4" x2="37.4" y2="208.5"/>
		<line class="st4" x1="27.1" y1="215.4" x2="33.8" y2="208"/>
		<line class="st4" x1="25.9" y1="211.4" x2="29.4" y2="208"/>
		<path class="st4" d="M33.9,213"/>
	</g>
	<g>
		<line class="st4" x1="71" y1="228.2" x2="70.9" y2="219.4"/>
		<line class="st4" x1="74.2" y1="224.5" x2="73.9" y2="220.4"/>
		<line class="st4" x1="67.3" y1="231.3" x2="67.8" y2="219.9"/>
		<line class="st4" x1="63.5" y1="231.5" x2="64.5" y2="221.6"/>
		<line class="st4" x1="60.2" y1="228.9" x2="61" y2="224.2"/>
		<path class="st4" d="M67.5,225.6"/>
	</g>
	<g>
		<line class="st4" x1="106.6" y1="216.2" x2="101.4" y2="209.1"/>
		<line class="st4" x1="107" y1="211.3" x2="104.4" y2="208.1"/>
		<line class="st4" x1="105.4" y1="220.8" x2="99.1" y2="211.3"/>
		<line class="st4" x1="102.5" y1="223.3" x2="97.5" y2="214.6"/>
		<line class="st4" x1="98.3" y1="223.1" x2="96.2" y2="218.8"/>
		<path class="st4" d="M102.3,216"/>
	</g>
	<g>
		<line class="st4" x1="128.2" y1="185.5" x2="119.8" y2="182.9"/>
		<line class="st4" x1="125.7" y1="181.3" x2="121.7" y2="180.3"/>
		<line class="st4" x1="130" y1="190" x2="119.3" y2="186"/>
		<line class="st4" x1="129.1" y1="193.7" x2="120" y2="189.6"/>
		<line class="st4" x1="125.6" y1="196" x2="121.3" y2="193.8"/>
		<path class="st4" d="M124.6,188"/>
	</g>
	<g>
		<line class="st4" x1="127.8" y1="147.9" x2="119.5" y2="150.7"/>
		<line class="st4" x1="123.3" y1="146" x2="119.5" y2="147.5"/>
		<line class="st4" x1="131.9" y1="150.5" x2="120.9" y2="153.5"/>
		<line class="st4" x1="133.3" y1="154" x2="123.6" y2="156.1"/>
		<line class="st4" x1="131.9" y1="157.9" x2="127.1" y2="158.7"/>
		<path class="st4" d="M126.4,152"/>
	</g>
	<g>
		<line class="st4" x1="105.3" y1="117.9" x2="100.2" y2="125.1"/>
		<line class="st4" x1="100.5" y1="119" x2="98.3" y2="122.5"/>
		<line class="st4" x1="110.1" y1="117.6" x2="103" y2="126.5"/>
		<line class="st4" x1="113.3" y1="119.6" x2="106.7" y2="127"/>
		<line class="st4" x1="114.5" y1="123.7" x2="111.1" y2="127"/>
		<path class="st4" d="M106.6,122.1"/>
	</g>
	<g>
		<line class="st4" x1="94.7" y1="111.9" x2="91.2" y2="120"/>
		<line class="st4" x1="96.2" y1="116.6" x2="94.4" y2="120.2"/>
		<line class="st4" x1="92.5" y1="107.6" x2="88.5" y2="118.3"/>
		<line class="st4" x1="89.1" y1="105.9" x2="86.2" y2="115.5"/>
		<line class="st4" x1="85" y1="107" x2="83.9" y2="111.7"/>
		<path class="st4" d="M90.5,113"/>
	</g>
	<g>
		<line class="st4" x1="122.6" y1="136.8" x2="115" y2="141.3"/>
		<line class="st4" x1="121.1" y1="141.5" x2="117.4" y2="143.4"/>
		<line class="st4" x1="123.3" y1="132" x2="113.8" y2="138.4"/>
		<line class="st4" x1="121.6" y1="128.7" x2="113.7" y2="134.7"/>
		<line class="st4" x1="117.7" y1="127.2" x2="114" y2="130.3"/>
		<path class="st4" d="M118.6,135.2"/>
	</g>
	<g>
		<line class="st4" x1="130.7" y1="173.6" x2="121.9" y2="172.7"/>
		<line class="st4" x1="126.7" y1="176.5" x2="122.7" y2="175.9"/>
		<line class="st4" x1="134.1" y1="170.2" x2="122.7" y2="169.7"/>
		<line class="st4" x1="134.7" y1="166.4" x2="124.7" y2="166.6"/>
		<line class="st4" x1="132.4" y1="162.9" x2="127.6" y2="163.3"/>
		<path class="st4" d="M128.4,169.9"/>
	</g>
	<g>
		<line class="st4" x1="115.6" y1="207.9" x2="109" y2="202"/>
		<line class="st4" x1="110.6" y1="207.9" x2="107.7" y2="205"/>
		<line class="st4" x1="120.3" y1="207.1" x2="111.3" y2="200"/>
		<line class="st4" x1="123" y1="204.4" x2="114.8" y2="198.7"/>
		<line class="st4" x1="123.2" y1="200.2" x2="119.1" y2="197.7"/>
		<path class="st4" d="M115.8,203.6"/>
	</g>
	<g>
		<line class="st4" x1="83.2" y1="226.8" x2="81.3" y2="218.2"/>
		<line class="st4" x1="79.2" y1="223.9" x2="78.5" y2="219.8"/>
		<line class="st4" x1="87.5" y1="228.9" x2="84.4" y2="217.9"/>
		<line class="st4" x1="91.2" y1="228.3" x2="87.9" y2="218.9"/>
		<line class="st4" x1="93.8" y1="225.1" x2="92" y2="220.6"/>
		<path class="st4" d="M85.9,223.4"/>
	</g>
	<g>
		<line class="st4" x1="45.7" y1="223.2" x2="49.2" y2="215.1"/>
		<line class="st4" x1="44.2" y1="218.5" x2="46.1" y2="214.8"/>
		<line class="st4" x1="48" y1="227.4" x2="51.9" y2="216.7"/>
		<line class="st4" x1="51.3" y1="229.2" x2="54.2" y2="219.6"/>
		<line class="st4" x1="55.4" y1="228.1" x2="56.5" y2="223.4"/>
		<path class="st4" d="M49.9,222.1"/>
	</g>
	<g>
		<line class="st4" x1="17.8" y1="198.1" x2="25.4" y2="193.7"/>
		<line class="st4" x1="19.3" y1="193.5" x2="23" y2="191.6"/>
		<line class="st4" x1="17.1" y1="202.9" x2="26.6" y2="196.6"/>
		<line class="st4" x1="18.8" y1="206.3" x2="26.7" y2="200.3"/>
		<line class="st4" x1="22.7" y1="207.8" x2="26.4" y2="204.7"/>
		<path class="st4" d="M21.8,199.7"/>
	</g>
	<g>
		<line class="st4" x1="9.7" y1="161.4" x2="18.5" y2="162.2"/>
		<line class="st4" x1="13.7" y1="158.5" x2="17.8" y2="159.1"/>
		<line class="st4" x1="6.4" y1="164.8" x2="17.8" y2="165.3"/>
		<line class="st4" x1="5.8" y1="168.6" x2="15.7" y2="168.4"/>
		<line class="st4" x1="8.1" y1="172.1" x2="12.9" y2="171.7"/>
		<path class="st4" d="M12.1,165.1"/>
	</g>
	<g>
		<line class="st4" x1="24.9" y1="127" x2="31.5" y2="132.9"/>
		<line class="st4" x1="29.8" y1="127" x2="32.7" y2="129.9"/>
		<line class="st4" x1="20.2" y1="127.8" x2="29.1" y2="134.9"/>
		<line class="st4" x1="17.5" y1="130.5" x2="25.7" y2="136.2"/>
		<line class="st4" x1="17.3" y1="134.7" x2="21.4" y2="137.2"/>
		<path class="st4" d="M24.6,131.3"/>
	</g>
	<g>
		<line class="st4" x1="57.3" y1="108.2" x2="59.2" y2="116.8"/>
		<line class="st4" x1="61.3" y1="111.1" x2="61.9" y2="115.2"/>
		<line class="st4" x1="53" y1="106.1" x2="56.1" y2="117.1"/>
		<line class="st4" x1="49.2" y1="106.7" x2="52.5" y2="116.1"/>
		<line class="st4" x1="46.6" y1="109.9" x2="48.4" y2="114.4"/>
		<path class="st4" d="M54.5,111.6"/>
	</g>
</g>
<g>
	<g>
		<path class="st5" d="M134.8,167.5c0,6.3-13.4,10.4-15.3,16c-1.9,5.9,6.5,17.1,2.9,22c-3.6,4.9-16.9,0.4-21.8,4
			C95.8,213,96,227,90.2,228.9c-5.7,1.8-13.7-9.6-20-9.6c-6.3,0-14.3,11.4-20,9.6c-5.9-1.9-5.6-15.9-10.5-19.5
			c-4.9-3.6-18.2,1-21.8-4c-3.6-4.9,4.8-16.1,2.9-22c-1.8-5.7-15.3-9.7-15.3-16c0-6.3,13.4-10.4,15.3-16c1.9-5.9-6.5-17.1-2.9-22
			c3.6-4.9,16.9-0.4,21.8-4c4.9-3.6,4.6-17.6,10.5-19.5c5.7-1.8,13.7,9.6,20,9.6c6.3,0,14.3-11.4,20-9.6c5.9,1.9,5.6,15.9,10.5,19.5
			c4.9,3.6,18.2-1,21.8,4c3.6,4.9-4.8,16.1-2.9,22C121.4,157.1,134.8,161.2,134.8,167.5z"/>
	</g>
	<g>
		<path class="st5" d="M133.2,153c1.4,6.1-10.8,13.1-11.3,19.1c-0.5,6.2,10.2,15.2,7.8,20.7c-2.4,5.6-16.3,4.2-20.3,8.8
			c-4,4.6-0.6,18.2-5.8,21.4c-5.1,3.1-15.5-6.3-21.6-4.9c-6.1,1.4-11.4,14.4-17.3,13.9c-6.2-0.5-9.1-14.3-14.6-16.6
			c-5.6-2.4-17.5,5-22.1,1c-4.6-4,1.1-16.8-2.1-22.1c-3.1-5.1-17.1-6.1-18.5-12.2C5.8,175.9,18,168.9,18.5,163
			c0.5-6.2-10.2-15.2-7.8-20.7c2.4-5.6,16.3-4.2,20.3-8.8c4-4.6,0.6-18.2,5.8-21.4c5.1-3.1,15.5,6.3,21.6,4.9
			c6.1-1.4,11.4-14.4,17.3-13.9c6.2,0.5,9.1,14.3,14.6,16.6c5.6,2.4,17.5-5,22.1-1c4.6,4-1.1,16.8,2.1,22.1
			C117.7,145.9,131.7,146.8,133.2,153z"/>
	</g>
</g>
<path class="st6" d="M112.6,36.6c9.3,2.9,18.9,1.5,24.6-0.1c7.2-2,14.9-2.9,20.7-2.8c6,0,7.5-4.9,6.1-7.4c-1.9-3.5-6.7-6.1-13.1-5.8
	c-8.9,0.5-18.3,6.8-31.3,2.1S104.6,9.9,99.6,6.8s-9.1-1.3-11.5,1.3s-2.9,5.5-0.4,8.5s7.9,9.3,12.8,13
	C105.4,33.3,108.1,35.2,112.6,36.6z"/>
<circle class="st7" cx="70.3" cy="167.5" r="8.5"/>
<path class="st8" d="M102.5,83.3l-8.7-2.8c0,0-20.9,64.2-27.8,85.6c-0.8,2.5,0.7,5.4,2.9,6c2.7,0.8,5-0.5,5.8-3.2
	C81.7,147.5,102.5,83.3,102.5,83.3z"/>
<rect x="92.6" y="76.9" transform="matrix(0.9511 0.309 -0.309 0.9511 29.5719 -26.6198)" class="st9" width="12.4" height="6.2"/>
<path class="st1" d="M94.1,195c0,0-23.7-20.7-27-23.7c-1.9-1.7-1.8-5.2,0.1-6.9c1.9-1.7,5.3-1.4,6.9,0.6C76,167.2,96.3,193,96.3,193
	L94.1,195z"/>
<rect x="84.7" y="190.2" class="st0" width="20.3" height="6.9"/>
<g>
	<path d="M206.3,183.9c-22.7,0-32.9-15.5-32.9-40.2v-41.9h8.6v39.3c0,22.6,5.5,35.5,24.2,35.5c18.8,0,24.4-12.6,24.4-35.4v-39.4h8.6
		V144C239.2,168.6,229,183.9,206.3,183.9z"/>
	<path d="M294.7,182.5v-28.3c0-13.6-4.2-20.3-15.2-20.3c-8.3,0-18.3,6-18.3,21.4v27.2h-7.8v-54.3h7.8v10.8c4-9,12.6-11.8,19.6-11.8
		c15.5,0,21.8,9.9,21.8,26.9v28.5H294.7z"/>
	<path d="M319.5,116.3c-2.9,0-5.1-1.8-5.1-4.8c0-2.9,2.2-4.5,5.1-4.5s5.1,1.7,5.1,4.7C324.6,114.5,322.4,116.3,319.5,116.3z
		 M315.6,182.5v-54.3h7.8v54.3H315.6z"/>
	<path d="M334.7,155.3c0-17.9,12.1-28.2,28.5-28.2c8.8,0,15.3,3.8,18.1,5.6l-1.6,7c-2.2-1.3-8.3-5.6-16.5-5.6
		c-11.8,0-20.8,7.4-20.8,21.1s8.8,21.4,20.8,21.4c7.5,0,13.4-3.6,16.5-5.7l3.6,6.2c-7,4.7-13.5,6.4-20.1,6.4
		C346.8,183.5,334.7,173,334.7,155.3z"/>
	<path d="M395.9,201.5l12.9-24.4l-24.2-48.9h8.8l19.5,40.9l19.8-40.9h8.6L404,202.9L395.9,201.5z"/>
	<path d="M441.4,155.3c0-17.9,12.1-28.2,28.5-28.2c8.8,0,15.3,3.8,18.1,5.6l-1.6,7c-2.2-1.3-8.3-5.6-16.5-5.6
		c-11.8,0-20.8,7.4-20.8,21.1s8.8,21.4,20.8,21.4c7.5,0,13.4-3.6,16.5-5.7l3.6,6.2c-7,4.7-13.5,6.4-20.1,6.4
		C453.5,183.5,441.4,173,441.4,155.3z"/>
	<path d="M498.3,182.5v-79.9l7.8-1.6v81.5H498.3z"/>
	<path d="M524.5,156.5c0,13,8.3,20.1,20.7,20.1c7.1,0,11.8-2.5,15.7-5.6l4,5.8c-6.9,5.1-12.5,6.6-19.8,6.6
		c-17.8,0-28.5-10.8-28.5-28.2c0-17,11.2-28.1,25.9-28.1c13.8,0,23.3,9,24.2,22.7c0.1,2.5,0.1,5.5,0,6.5H524.5z M524.8,150.2h34.8
		c-0.5-11-7.8-16.5-17-16.5C533.8,133.7,526.5,139.6,524.8,150.2z"/>
	<path d="M585.1,158v24.4h-7.8v-54.3h7.8v11.3c2.9-8.7,11.2-13,20.8-12l-1.4,7C589.3,132.4,585.1,145.6,585.1,158z"/>
</g>
</svg>
