<?xml version="1.0" encoding="utf-8"?>
<!-- Generator: Adobe Illustrator 20.1.0, SVG Export Plug-In . SVG Version: 6.00 Build 0)  -->
<svg version="1.1" id="Layer_1" xmlns="http://www.w3.org/2000/svg" xmlns:xlink="http://www.w3.org/1999/xlink" x="0px" y="0px"
	 viewBox="0 0 334.9 469.8" style="enable-background:new 0 0 334.9 469.8;" xml:space="preserve">
<style type="text/css">
	.st0{fill:#282828;stroke:#010202;stroke-width:3;stroke-linejoin:round;stroke-miterlimit:10;}
	.st1{fill:#7F7F80;stroke:#010202;stroke-width:3;stroke-miterlimit:10;}
	.st2{fill:none;stroke:#010202;stroke-width:1.5;stroke-miterlimit:10;}
	.st3{fill:#7F7F80;stroke:#010202;stroke-width:4;stroke-miterlimit:10;}
	.st4{fill:none;stroke:#9E1A1A;stroke-width:4.5;stroke-linecap:round;stroke-miterlimit:10;}
	.st5{fill:none;stroke:#000000;stroke-width:8;stroke-linecap:round;stroke-miterlimit:10;}
	.st6{fill:#282828;stroke:#010202;stroke-width:4;stroke-miterlimit:10;}
	.st7{fill:#7F7F80;stroke:#000000;stroke-width:5;stroke-miterlimit:10;}
	.st8{fill:#9E1A1A;stroke:#010202;stroke-width:4;stroke-miterlimit:10;}
	.st9{fill:#9E1A1A;stroke:#010202;stroke-width:4;stroke-linejoin:round;stroke-miterlimit:10;}
</style>
<rect x="69.1" y="273.8" class="st0" width="40.6" height="13.8"/>
<path class="st1" d="M91.5,278.6c4.9,4.3,47.3,41.5,54,47.4c3.8,3.4,3.5,10.5-0.2,13.9c-3.8,3.4-10.6,2.8-13.8-1.1
	c-3.7-4.7-38.1-48.2-44.4-56.2c-1-1.3-0.8-3,0.3-4C88.5,277.5,90.4,277.6,91.5,278.6z"/>
<g>
	<line class="st2" x1="114.5" y1="448.5" x2="154.3" y2="337.1"/>
	<line class="st2" x1="102.3" y1="429.1" x2="122" y2="326.5"/>
	<line class="st2" x1="150.7" y1="439.9" x2="155.4" y2="331.9"/>
	<line class="st2" x1="132.9" y1="435.9" x2="121.5" y2="333.2"/>
	<line class="st2" x1="187.6" y1="440.3" x2="154.4" y2="326.8"/>
	<line class="st2" x1="166.3" y1="431.9" x2="122" y2="337.3"/>
	<line class="st2" x1="211.9" y1="412.1" x2="152.2" y2="322"/>
	<line class="st2" x1="195.1" y1="419.3" x2="125.5" y2="343"/>
	<line class="st2" x1="241.9" y1="390.8" x2="148.3" y2="318.5"/>
	<line class="st2" x1="219.8" y1="396.4" x2="128.3" y2="346"/>
	<line class="st2" x1="245" y1="353.7" x2="143.8" y2="315.9"/>
	<line class="st2" x1="235.7" y1="369.4" x2="134.5" y2="348.5"/>
	<line class="st2" x1="256.8" y1="318.8" x2="138.6" y2="315.3"/>
	<line class="st2" x1="242.2" y1="336.4" x2="138.5" y2="349.3"/>
	<line class="st2" x1="237.5" y1="286.9" x2="133.4" y2="315.9"/>
	<line class="st2" x1="239.1" y1="305.1" x2="145" y2="347.7"/>
	<line class="st2" x1="226.5" y1="251.8" x2="128.8" y2="318.4"/>
	<line class="st2" x1="225" y1="274.6" x2="148.7" y2="346"/>
	<line class="st2" x1="192.1" y1="237.3" x2="124.9" y2="322"/>
	<line class="st2" x1="204.2" y1="251.1" x2="153.1" y2="340.9"/>
	<line class="st2" x1="162.6" y1="215.4" x2="122.7" y2="326.7"/>
	<line class="st2" x1="174.8" y1="234.7" x2="155" y2="337.3"/>
	<line class="st2" x1="126.3" y1="223.9" x2="121.7" y2="331.9"/>
	<line class="st2" x1="144.1" y1="227.9" x2="155.6" y2="330.6"/>
	<line class="st2" x1="89.5" y1="223.5" x2="122.7" y2="337"/>
	<line class="st2" x1="110.7" y1="232" x2="155" y2="326.6"/>
	<line class="st2" x1="65.2" y1="251.7" x2="124.9" y2="341.8"/>
	<line class="st2" x1="82" y1="244.5" x2="151.6" y2="320.9"/>
	<line class="st2" x1="35.1" y1="273" x2="128.7" y2="345.4"/>
	<line class="st2" x1="57.3" y1="267.4" x2="148.7" y2="317.9"/>
	<line class="st2" x1="32" y1="310.1" x2="133.3" y2="347.9"/>
	<line class="st2" x1="41.4" y1="294.4" x2="142.6" y2="315.3"/>
	<line class="st2" x1="20.2" y1="345.1" x2="138.5" y2="348.6"/>
	<line class="st2" x1="34.9" y1="327.5" x2="138.5" y2="314.6"/>
	<line class="st2" x1="39.6" y1="376.9" x2="143.7" y2="348"/>
	<line class="st2" x1="37.9" y1="358.7" x2="132" y2="316.1"/>
	<line class="st2" x1="50.6" y1="412.1" x2="148.3" y2="345.4"/>
	<line class="st2" x1="52.1" y1="389.3" x2="128.3" y2="317.9"/>
	<line class="st2" x1="84.9" y1="426.5" x2="152.1" y2="341.9"/>
	<line class="st2" x1="72.9" y1="412.7" x2="124" y2="322.9"/>
</g>
<rect x="205.2" y="57.3" transform="matrix(0.9511 0.309 -0.309 0.9511 43.0326 -60.3677)" class="st3" width="13.8" height="96.7"/>
<g>
	<g>
		<line class="st4" x1="137" y1="210.5" x2="137.2" y2="228.1"/>
		<line class="st4" x1="130.5" y1="217.9" x2="131.1" y2="226.1"/>
		<line class="st4" x1="144.4" y1="204.4" x2="143.3" y2="227.2"/>
		<line class="st4" x1="151.9" y1="203.8" x2="149.8" y2="223.6"/>
		<line class="st4" x1="158.6" y1="209" x2="157" y2="218.5"/>
		<path class="st4" d="M143.9,215.8"/>
	</g>
	<g>
		<line class="st4" x1="65.7" y1="234.6" x2="76.2" y2="248.7"/>
		<line class="st4" x1="64.8" y1="244.4" x2="70.1" y2="250.7"/>
		<line class="st4" x1="68.1" y1="225.3" x2="80.6" y2="244.4"/>
		<line class="st4" x1="73.9" y1="220.4" x2="83.8" y2="237.7"/>
		<line class="st4" x1="82.3" y1="220.7" x2="86.6" y2="229.3"/>
		<path class="st4" d="M74.4,234.8"/>
	</g>
	<g>
		<line class="st4" x1="22.4" y1="295.8" x2="39.2" y2="301"/>
		<line class="st4" x1="27.5" y1="304.2" x2="35.4" y2="306.2"/>
		<line class="st4" x1="18.9" y1="286.8" x2="40.2" y2="294.9"/>
		<line class="st4" x1="20.7" y1="279.5" x2="38.9" y2="287.6"/>
		<line class="st4" x1="27.7" y1="274.8" x2="36.2" y2="279.2"/>
		<path class="st4" d="M29.5,290.9"/>
	</g>
	<g>
		<line class="st4" x1="23.3" y1="371" x2="40" y2="365.3"/>
		<line class="st4" x1="32.4" y1="374.8" x2="40" y2="371.7"/>
		<line class="st4" x1="15.2" y1="365.8" x2="37.2" y2="359.8"/>
		<line class="st4" x1="12.3" y1="358.8" x2="31.8" y2="354.7"/>
		<line class="st4" x1="15.2" y1="350.9" x2="24.7" y2="349.4"/>
		<path class="st4" d="M26.2,362.8"/>
	</g>
	<g>
		<line class="st4" x1="68.2" y1="431.2" x2="78.4" y2="416.8"/>
		<line class="st4" x1="77.8" y1="429" x2="82.1" y2="422"/>
		<line class="st4" x1="58.6" y1="431.8" x2="72.9" y2="414"/>
		<line class="st4" x1="52.2" y1="427.8" x2="65.5" y2="413"/>
		<line class="st4" x1="49.9" y1="419.7" x2="56.7" y2="412.9"/>
		<path class="st4" d="M65.7,422.9"/>
	</g>
	<g>
		<line class="st4" x1="140" y1="453.4" x2="139.8" y2="435.7"/>
		<line class="st4" x1="146.4" y1="445.9" x2="145.8" y2="437.7"/>
		<line class="st4" x1="132.5" y1="459.4" x2="133.6" y2="436.6"/>
		<line class="st4" x1="125" y1="460" x2="127.1" y2="440.2"/>
		<line class="st4" x1="118.4" y1="454.8" x2="119.9" y2="445.3"/>
		<path class="st4" d="M133.1,448"/>
	</g>
	<g>
		<line class="st4" x1="211.2" y1="429.3" x2="200.7" y2="415.1"/>
		<line class="st4" x1="212" y1="419.4" x2="206.8" y2="413.1"/>
		<line class="st4" x1="208.8" y1="438.6" x2="196.3" y2="419.5"/>
		<line class="st4" x1="203" y1="443.4" x2="193.1" y2="426.2"/>
		<line class="st4" x1="194.6" y1="443.1" x2="190.3" y2="434.5"/>
		<path class="st4" d="M202.5,429"/>
	</g>
	<g>
		<line class="st4" x1="254.4" y1="367.9" x2="237.6" y2="362.7"/>
		<line class="st4" x1="249.3" y1="359.5" x2="241.4" y2="357.5"/>
		<line class="st4" x1="257.9" y1="376.9" x2="236.6" y2="368.8"/>
		<line class="st4" x1="256.1" y1="384.2" x2="237.9" y2="376.1"/>
		<line class="st4" x1="249.1" y1="388.9" x2="240.6" y2="384.5"/>
		<path class="st4" d="M247.3,372.9"/>
	</g>
	<g>
		<line class="st4" x1="253.7" y1="292.7" x2="237" y2="298.3"/>
		<line class="st4" x1="244.6" y1="288.9" x2="237" y2="292"/>
		<line class="st4" x1="261.7" y1="297.9" x2="239.7" y2="303.9"/>
		<line class="st4" x1="264.6" y1="304.9" x2="245.1" y2="309"/>
		<line class="st4" x1="261.7" y1="312.8" x2="252.2" y2="314.3"/>
		<path class="st4" d="M250.7,300.9"/>
	</g>
	<g>
		<line class="st4" x1="208.6" y1="232.7" x2="198.4" y2="247.1"/>
		<line class="st4" x1="199" y1="235" x2="194.7" y2="241.9"/>
		<line class="st4" x1="218.2" y1="232.2" x2="203.9" y2="250"/>
		<line class="st4" x1="224.6" y1="236.2" x2="211.3" y2="250.9"/>
		<line class="st4" x1="226.9" y1="244.3" x2="220.1" y2="251"/>
		<path class="st4" d="M211.1,241.1"/>
	</g>
	<g>
		<line class="st4" x1="187.4" y1="220.7" x2="180.3" y2="236.9"/>
		<line class="st4" x1="190.4" y1="230.1" x2="186.7" y2="237.4"/>
		<line class="st4" x1="182.9" y1="212.2" x2="175" y2="233.6"/>
		<line class="st4" x1="176.2" y1="208.8" x2="170.4" y2="227.8"/>
		<line class="st4" x1="168.1" y1="211" x2="165.8" y2="220.3"/>
		<path class="st4" d="M179,222.9"/>
	</g>
	<g>
		<line class="st4" x1="243.3" y1="270.5" x2="228.1" y2="279.4"/>
		<line class="st4" x1="240.2" y1="279.9" x2="232.9" y2="283.6"/>
		<line class="st4" x1="244.6" y1="261" x2="225.7" y2="273.7"/>
		<line class="st4" x1="241.2" y1="254.3" x2="225.3" y2="266.3"/>
		<line class="st4" x1="233.3" y1="251.3" x2="226" y2="257.5"/>
		<path class="st4" d="M235.1,267.3"/>
	</g>
	<g>
		<line class="st4" x1="259.4" y1="344.1" x2="241.9" y2="342.4"/>
		<line class="st4" x1="251.4" y1="349.9" x2="243.3" y2="348.6"/>
		<line class="st4" x1="266.1" y1="337.2" x2="243.3" y2="336.4"/>
		<line class="st4" x1="267.3" y1="329.8" x2="247.4" y2="330.2"/>
		<line class="st4" x1="262.7" y1="322.7" x2="253.1" y2="323.5"/>
		<path class="st4" d="M254.7,336.8"/>
	</g>
	<g>
		<line class="st4" x1="229.1" y1="412.7" x2="215.9" y2="401"/>
		<line class="st4" x1="219.2" y1="412.7" x2="213.4" y2="406.9"/>
		<line class="st4" x1="238.6" y1="411.1" x2="220.6" y2="397"/>
		<line class="st4" x1="243.9" y1="405.8" x2="227.6" y2="394.4"/>
		<line class="st4" x1="244.3" y1="397.3" x2="236.2" y2="392.3"/>
		<path class="st4" d="M229.6,404"/>
	</g>
	<g>
		<line class="st4" x1="164.3" y1="450.5" x2="160.5" y2="433.3"/>
		<line class="st4" x1="156.3" y1="444.7" x2="155" y2="436.6"/>
		<line class="st4" x1="172.9" y1="454.8" x2="166.7" y2="432.8"/>
		<line class="st4" x1="180.4" y1="453.6" x2="173.9" y2="434.8"/>
		<line class="st4" x1="185.7" y1="447" x2="182" y2="438.2"/>
		<path class="st4" d="M169.8,443.8"/>
	</g>
	<g>
		<line class="st4" x1="89.4" y1="443.3" x2="96.5" y2="427.1"/>
		<line class="st4" x1="86.4" y1="433.9" x2="90.1" y2="426.6"/>
		<line class="st4" x1="93.9" y1="451.8" x2="101.8" y2="430.4"/>
		<line class="st4" x1="100.6" y1="455.2" x2="106.4" y2="436.2"/>
		<line class="st4" x1="108.7" y1="453" x2="111" y2="443.7"/>
		<path class="st4" d="M97.8,441.1"/>
	</g>
	<g>
		<line class="st4" x1="33.5" y1="393.2" x2="48.7" y2="384.3"/>
		<line class="st4" x1="36.6" y1="383.8" x2="43.9" y2="380.1"/>
		<line class="st4" x1="32.2" y1="402.7" x2="51.1" y2="390"/>
		<line class="st4" x1="35.6" y1="409.5" x2="51.5" y2="397.4"/>
		<line class="st4" x1="43.5" y1="412.5" x2="50.8" y2="406.2"/>
		<path class="st4" d="M41.6,396.4"/>
	</g>
	<g>
		<line class="st4" x1="17.4" y1="319.7" x2="34.9" y2="321.4"/>
		<line class="st4" x1="25.4" y1="313.9" x2="33.5" y2="315.2"/>
		<line class="st4" x1="10.7" y1="326.6" x2="33.5" y2="327.5"/>
		<line class="st4" x1="9.5" y1="334" x2="29.4" y2="333.7"/>
		<line class="st4" x1="14.1" y1="341.1" x2="23.7" y2="340.4"/>
		<path class="st4" d="M22.1,327"/>
	</g>
	<g>
		<line class="st4" x1="47.8" y1="250.9" x2="61" y2="262.6"/>
		<line class="st4" x1="57.6" y1="250.9" x2="63.4" y2="256.7"/>
		<line class="st4" x1="38.3" y1="252.5" x2="56.2" y2="266.7"/>
		<line class="st4" x1="32.9" y1="257.9" x2="49.3" y2="269.3"/>
		<line class="st4" x1="32.5" y1="266.3" x2="40.7" y2="271.3"/>
		<path class="st4" d="M47.3,259.6"/>
	</g>
	<g>
		<line class="st4" x1="112.5" y1="213.3" x2="116.3" y2="230.5"/>
		<line class="st4" x1="120.5" y1="219.1" x2="121.8" y2="227.2"/>
		<line class="st4" x1="103.9" y1="209.1" x2="110.1" y2="231"/>
		<line class="st4" x1="96.5" y1="210.2" x2="103" y2="229.1"/>
		<line class="st4" x1="91.2" y1="216.8" x2="94.8" y2="225.7"/>
		<path class="st4" d="M107,220"/>
	</g>
</g>
<g>
	<g>
		<path class="st5" d="M267.6,331.9c0,12.6-26.9,20.7-30.6,32.1c-3.8,11.7,13,34.1,5.9,43.9c-7.2,9.9-33.7,0.8-43.6,7.9
			c-9.8,7.1-9.3,35.2-21,39c-11.3,3.7-27.4-19.2-39.9-19.2c-12.6,0-28.6,22.9-39.9,19.2c-11.7-3.8-11.2-31.9-21-39
			c-9.9-7.2-36.4,1.9-43.6-7.9c-7.1-9.8,9.7-32.2,5.9-43.9c-3.7-11.3-30.6-19.5-30.6-32.1c0-12.6,26.9-20.7,30.6-32.1
			c3.8-11.7-13-34.1-5.9-43.9c7.2-9.9,33.7-0.8,43.6-7.9c9.8-7.1,9.3-35.2,21-39c11.3-3.7,27.4,19.2,39.9,19.2
			c12.6,0,28.6-22.9,39.9-19.2c11.7,3.8,11.2,31.9,21,39c9.9,7.2,36.4-1.9,43.6,7.9c7.1,9.8-9.7,32.2-5.9,43.9
			C240.7,311.2,267.6,319.3,267.6,331.9z"/>
	</g>
	<g>
		<path class="st5" d="M264.3,302.8c2.8,12.2-21.5,26.2-22.6,38.1c-1.1,12.3,20.3,30.3,15.6,41.5c-4.8,11.2-32.7,8.3-40.7,17.6
			c-7.9,9.1-1.1,36.4-11.7,42.7c-10.2,6.1-31-12.6-43.2-9.7c-12.2,2.8-22.7,28.7-34.6,27.7c-12.3-1.1-18.1-28.5-29.2-33.3
			c-11.2-4.8-35,10.1-44.3,2.1c-9.1-7.9,2.2-33.5-4.1-44.1c-6.1-10.2-34.2-12.1-37-24.4c-2.8-12.2,21.5-26.2,22.6-38.1
			c1.1-12.3-20.3-30.3-15.6-41.5c4.8-11.2,32.7-8.3,40.7-17.6c7.9-9.1,1.1-36.4,11.7-42.7c10.2-6.1,31,12.6,43.2,9.7
			c12.2-2.8,22.7-28.7,34.6-27.7c12.3,1.1,18.1,28.5,29.2,33.3c11.2,4.8,35-10.1,44.3-2.1c9.1,7.9-2.2,33.5,4.1,44.1
			C233.4,288.7,261.5,290.6,264.3,302.8z"/>
	</g>
</g>
<path class="st6" d="M223.2,70.2c18.6,5.8,37.8,3,49.3-0.3c14.3-4,29.8-5.8,41.5-5.7c12.1,0.1,14.9-9.7,12.3-14.7
	c-3.7-7.1-13.4-12.3-26.2-11.5c-17.9,1-36.6,13.6-62.6,4.2s-30.4-25.5-40.2-31.6s-18.2-2.6-23,2.6c-4.8,5.1-5.8,11.1-0.8,16.9
	c5,5.9,15.9,18.6,25.5,25.9S214.2,67.4,223.2,70.2z"/>
<circle class="st7" cx="138.5" cy="331.9" r="17"/>
<path class="st8" d="M203,163.5l-17.4-5.6c0,0-41.7,128.4-55.6,171.2c-1.6,5,1.3,10.7,5.7,12c5.5,1.5,10-1.1,11.7-6.3
	C161.3,291.9,203,163.5,203,163.5z"/>
<rect x="183.2" y="150.8" transform="matrix(0.9511 0.309 -0.309 0.9511 58.0931 -52.7665)" class="st9" width="24.9" height="12.4"/>
<path class="st1" d="M186.2,386.8c0,0-47.3-41.5-54-47.4c-3.8-3.4-3.5-10.5,0.2-13.9c3.8-3.4,10.6-2.8,13.8,1.1
	c3.7,4.7,44.4,56.2,44.4,56.2L186.2,386.8z"/>
<rect x="167.4" y="377.4" class="st0" width="40.6" height="13.8"/>
</svg>
